<?xml-stylesheet type="text/css" href="styles.css" ?><!DOCTYPE svg PUBLIC "-//W3C//DTD SVG 1.1//EN" "http://www.w3.org/Graphics/SVG/1.1/DTD/svg11.dtd"><svg width="1516" height="1516" viewBox="0 0 1516 1516" xmlns="http://www.w3.org/2000/svg" xmlns:xlink="http://www.w3.org/1999/xlink"><svg width="322" height="322" viewBox="-1 -1 242 242" id="back-arrow" x="1028" y="1002"><g fill="#fff"><path d="M101.8 1.5C68 6.8 38.9 26 19.2 56c-37 56.1-17.9 133.4 41.3 167.7 45.9 26.6 102.2 19.8 141.1-17 55.3-52.3 49.9-138.1-11.5-183.6-24.8-18.3-57.5-26.3-88.3-21.6zm34.9 21c21.6 4.1 39.8 13.9 54.5 29.3 12.2 12.8 20.4 27.4 24.9 44.2 3.2 11.8 3.3 35.7.1 47.2-5.1 18.7-13.5 33.3-26.6 46.4-18.8 18.7-40.1 28.1-66.1 29.2-55.8 2.3-102.6-43-102.5-99.2.1-44.9 31-84.5 74.5-95.5 4.4-1.1 9.4-2.2 11-2.4 7.4-1 23-.6 30.2.8z"/><path d="M78.1 94.6l-24.3 25.5 7.8 8.2c4.4 4.5 15.3 16 24.3 25.5l16.5 17.2h34.8l-18.1-18.8-18-18.7 39.9-.3 40-.2v-26h-80.5l13-13.3c7.2-7.2 15.5-15.8 18.5-19l5.4-5.7H120l-17.5.1-24.4 25.5z"/></g></svg><svg id="comment" data-name="Layer 1" width="66" height="66" viewBox="-1 -1 66 66" x="1442.55" y="564"><defs><style>.bcls-1{fill:#2f5572}</style></defs><title>comment</title><path class="bcls-1" d="M.72.08A.67.67 0 0 0 0 .8v46.48a.72.72 0 0 0 .72.72H48l16 16V.72a.67.67 0 0 0-.72-.72H.8z"/></svg><svg width="514" height="514" viewBox="-1 -1 912.81 912.81" id="cv" y="1002"><g fill="#FFF"><path d="M122.483 50v810.812c0 27.613 22.386 50 50 50h383.655V758.703H223.57c-8.284 0-15-6.717-15-15 0-8.285 6.716-15 15-15h333.404c4.744-28.377 29.462-50.076 59.164-50.076h172.183V50c0-27.614-22.386-50-50-50H172.483c-27.615 0-50 22.386-50 50zm392.174 44.062l42.478 151.899c9.694 34.166 16.621 63.715 26.777 98.342h1.848c10.156-34.627 17.082-64.176 26.316-98.342l42.016-151.899h54.941l-93.725 301.952h-63.253L457.868 94.062h56.789zm-156.048-5.54c36.475 0 66.947 18.006 85.877 38.321l-30.011 33.243c-15.236-15.236-32.319-24.932-55.404-24.932-49.864 0-84.953 41.553-84.953 109.423 0 68.794 32.319 110.347 83.106 110.347 26.777 0 46.17-11.081 63.253-30.011l30.01 32.781c-24.47 28.164-56.327 43.862-94.187 43.862-77.104 0-137.125-55.404-137.125-155.593.001-98.805 61.868-157.441 139.434-157.441zM223.57 471.627h463.664c8.284 0 15 6.717 15 15s-6.716 15-15 15H223.57c-8.284 0-15-6.717-15-15s6.715-15 15-15zm0 133.082h463.664c8.284 0 15 6.717 15 15 0 8.285-6.716 15-15 15H223.57c-8.284 0-15-6.715-15-15 0-8.283 6.715-15 15-15z"/><path d="M783.624 708.627H616.139c-16.569 0-30 13.432-30 30v172.186l202.19-202.186h-4.705z"/></g></svg><svg id="facebook" data-name="Layer 1" width="23.23" height="44.01" viewBox="-1 -1 23.23 44.01" x="1442.55" y="872.06"><defs><style>.dcls-1{fill:#fff}</style></defs><title>facebook</title><path class="dcls-1" d="M21.23.31V7H17.4a3.55 3.55 0 0 0-2.85.91 4.26 4.26 0 0 0-.74 2.72v4.77H21l-1 7.47h-6.19V42H6.27V22.85H0v-7.47h6.27V9.85q0-4.69 2.55-7.28A9 9 0 0 1 15.63 0a39.57 39.57 0 0 1 5.6.31z"/></svg><svg width="440.55" height="440.55" viewBox="-1 -1 440.55 440.55" id="github" x="1002" y="514"><path fill="#FFF" d="M409.132 114.573c-19.608-33.596-46.205-60.194-79.798-79.8-33.598-19.607-70.277-29.408-110.063-29.408-39.781 0-76.472 9.804-110.063 29.408-33.596 19.605-60.192 46.204-79.8 79.8C9.803 148.168 0 184.854 0 224.63c0 47.78 13.94 90.745 41.827 128.906 27.884 38.164 63.906 64.572 108.063 79.227 5.14.954 8.945.283 11.419-1.996 2.475-2.282 3.711-5.14 3.711-8.562 0-.571-.049-5.708-.144-15.417a2549.81 2549.81 0 0 1-.144-25.406l-6.567 1.136c-4.187.767-9.469 1.092-15.846 1-6.374-.089-12.991-.757-19.842-1.999-6.854-1.231-13.229-4.086-19.13-8.559-5.898-4.473-10.085-10.328-12.56-17.556l-2.855-6.57c-1.903-4.374-4.899-9.233-8.992-14.559-4.093-5.331-8.232-8.945-12.419-10.848l-1.999-1.431c-1.332-.951-2.568-2.098-3.711-3.429-1.142-1.331-1.997-2.663-2.568-3.997-.572-1.335-.098-2.43 1.427-3.289 1.525-.859 4.281-1.276 8.28-1.276l5.708.853c3.807.763 8.516 3.042 14.133 6.851 5.614 3.806 10.229 8.754 13.846 14.842 4.38 7.806 9.657 13.754 15.846 17.847 6.184 4.093 12.419 6.136 18.699 6.136 6.28 0 11.704-.476 16.274-1.423 4.565-.952 8.848-2.383 12.847-4.285 1.713-12.758 6.377-22.559 13.988-29.41-10.848-1.14-20.601-2.857-29.264-5.14-8.658-2.286-17.605-5.996-26.835-11.14-9.235-5.137-16.896-11.516-22.985-19.126-6.09-7.614-11.088-17.61-14.987-29.979-3.901-12.374-5.852-26.648-5.852-42.826 0-23.035 7.52-42.637 22.557-58.817-7.044-17.318-6.379-36.732 1.997-58.24 5.52-1.715 13.706-.428 24.554 3.853 10.85 4.283 18.794 7.952 23.84 10.994 5.046 3.041 9.089 5.618 12.135 7.708 17.705-4.947 35.976-7.421 54.818-7.421s37.117 2.474 54.823 7.421l10.849-6.849c7.419-4.57 16.18-8.758 26.262-12.565 10.088-3.805 17.802-4.853 23.134-3.138 8.562 21.509 9.325 40.922 2.279 58.24 15.036 16.18 22.559 35.787 22.559 58.817 0 16.178-1.958 30.497-5.853 42.966-3.9 12.471-8.941 22.457-15.125 29.979-6.191 7.521-13.901 13.85-23.131 18.986-9.232 5.14-18.182 8.85-26.84 11.136-8.662 2.286-18.415 4.004-29.263 5.146 9.894 8.562 14.842 22.077 14.842 40.539v60.237c0 3.422 1.19 6.279 3.572 8.562 2.379 2.279 6.136 2.95 11.276 1.995 44.163-14.653 80.185-41.062 108.068-79.226 27.88-38.161 41.825-81.126 41.825-128.906-.01-39.771-9.818-76.454-29.414-110.049z"/></svg><svg id="globe" data-name="Layer 1" width="66" height="66" viewBox="-1 -1 66 66" x="1442.55" y="630"><defs><style>.fcls-1{fill:#fff}</style></defs><title>globe</title><path class="fcls-1" d="M32 0a32 32 0 1 0 32 32A32 32 0 0 0 32 0zm0 8a23.75 23.75 0 0 1 7.52 1.52c-1.68 1.6-3.6 3-3.28 4.48s5.52 1 5.52 4c0 2.16-3.36 2.8-1 5.28 2.8 2.8-5.12 7.84-5.28 11.52-.24 6.64 6.72 7.76 12.24 7.76 3.36 0 4.24 1.6 4 3.52a24.07 24.07 0 0 1-19.76 10 22.94 22.94 0 0 1-8.48-1.76c1.76-3.52-2.24-10.48-6-12.72-1.84-1.84-5.76-1.12-8-2a23.49 23.49 0 0 1-1.52-6.72 1.42 1.42 0 0 1 1.28-.72c1.52 0 3.6 3 4.72 2.72 1.4-.32-5.96-10.48-2.52-12.48 1.6-1 4.8 3.12 3.76-1.28-1-4.08 2.88-2.24 5.28-3.28 2.08-.88 3.6-3.28 1-4.72a8.55 8.55 0 0 1-1.76-1.52A23.75 23.75 0 0 1 32 8.08V8zm18.48 8.72A26.46 26.46 0 0 1 54 22.48v.24a11.78 11.78 0 0 1-1.76 1.76C50 26.72 49.68 22.8 48.72 22c-1-1-4.8.16-5.28-1-.56-1.48 4-3.4 7.04-4.28z"/></svg><svg id="mail" data-name="Layer 1" width="66" height="50" viewBox="-1 -1 66 50" x="1442.55" y="514"><defs><style>.gcls-1{fill:#fff}</style></defs><title>mail</title><path class="gcls-1" d="M0 0v8l32 16L64 8V0H0zm0 16v32h64V16L32 32z"/></svg><svg id="phone" viewBox="-1 -1 514 514" width="514" height="514" x="1002"><style>.hst0{fill:#fff}</style><path class="hst0" d="M511.8 404c1.1 8.3-1.4 15.5-7.6 21.7l-72.1 71.5c-3.3 3.6-7.5 6.7-12.7 9.2-5.2 2.5-10.4 4.2-15.4 4.9-.4 0-1.4.1-3.3.3-1.8.2-4.2.3-7 .3-6.9 0-18-1.2-33.3-3.5-15.4-2.3-34.1-8.1-56.4-17.3-22.2-9.2-47.4-23-75.6-41.5-28.2-18.4-58.2-43.7-90-75.9-25.3-24.9-46.3-48.8-62.9-71.5-16.6-22.8-30-43.8-40.1-63.1-10.1-19.3-17.7-36.9-22.8-52.6s-8.5-29.3-10.3-40.7S-.2 125.5.1 119c.4-6.5.5-10.1.5-10.8.8-5.2 2.4-10.4 4.9-15.6s5.6-9.5 9.2-12.7L86.8 7.8C91.9 2.7 97.6.2 104.1.2c4.7 0 8.9 1.4 12.5 4.1s6.7 6.1 9.2 10l58 110c3.3 5.8 4.2 12.1 2.7 19-1.4 6.9-4.5 12.6-9.2 17.3l-26.6 26.6c-.7.7-1.4 1.9-1.9 3.5s-.8 3-.8 4.1c1.4 7.6 4.7 16.3 9.8 26 4.3 8.7 11 19.2 20.1 31.7s21.9 26.8 38.5 43.1c16.3 16.6 30.7 29.5 43.4 38.8 12.6 9.2 23.2 16 31.7 20.3s15 7 19.5 7.9l6.8 1.4c.7 0 1.9-.3 3.5-.8s2.8-1.2 3.5-1.9l30.9-31.4c6.5-5.8 14.1-8.7 22.8-8.7 6.1 0 11 1.1 14.6 3.3h.5l104.6 61.8c7.6 4.5 12.1 10.4 13.6 17.7z"/></svg><svg height="189.5" version="1" width="189.5" viewBox="-1 -1 189.5 189.5" id="print" x="1028" y="1324"><g transform="translate(-527.545 -379.005)" stroke="#000"><rect height="58.321" rx="10" ry="10" width="145.803" x="547.304" y="448.864" fill="#fff" stroke-width="3.121" stroke-linecap="round" stroke-linejoin="round"/><path fill="#fff" stroke-width="3.121" stroke-linecap="round" stroke-linejoin="round" d="M576.542 498.719h87.326v39.464h-87.326z"/><path d="M561.884 468.746H677.2" fill="none" fill-opacity=".75" fill-rule="evenodd" stroke-width="4.058" stroke-linecap="round"/><path fill="#fff" stroke-width="3.121" stroke-linecap="round" stroke-linejoin="round" d="M576.464 404.055h87.482v44.549h-87.482z"/><path d="M587.068 527.067h66.274M587.068 520.44h66.274M587.068 513.812h66.274M587.068 507.185h66.274" fill="none" fill-opacity=".75" fill-rule="evenodd" stroke-width="2.081"/></g></svg><svg viewBox="-1 -1 1002 1002" width="1002" height="1002" id="share"><path d="M815.93 51.04c-37.15 8.04-68.74 28.53-90.18 58.97-17.81 25.47-27.76 58.98-26.23 88.46l.77 15.89-211.58 94.4c-116.42 51.89-213.68 95.16-215.98 96.12-3.64 1.72-5.94.38-16.28-9.19-14.93-13.79-30.25-23.93-46.14-30.25C125.1 331.36 31.28 381.72 12.9 471.71-.89 538.53 35.68 607.65 98.48 633.89c54.95 22.59 115.08 11.49 157.96-29.68l12.83-12.26 215.6 96.12 215.6 96.12-.96 16.47c-2.11 37.91 13.21 78.31 40.4 107.03 34.85 36.38 92.86 52.46 142.07 39.44 39.44-10.53 74.67-39.63 92.86-76.59 9.57-19.72 13.21-33.89 14.74-56.48 3.64-60.31-32.36-118.33-88.08-141.5-55.53-22.98-115.84-11.3-160.26 31.4l-10.53 9.96-215.21-95.93-215.21-96.11v-22.59l-.19-22.6 214.26-95.54c117.95-52.66 214.83-95.55 215.41-95.55.57 0 6.51 5.17 13.02 11.49 83.1 80.99 220.96 38.49 244.32-75.06 13.78-66.82-22.79-135.94-85.59-161.98-27.19-11.3-58.79-14.56-85.59-9.01z" fill="#FFF"/></svg><svg id="star" data-name="Layer 1" width="66" height="66" viewBox="-1 -1 66 66" x="1442.55" y="696"><defs><style>.kcls-1{fill:#d4953f}</style></defs><title>star</title><path class="kcls-1" d="M32 0l-8 24H0l20 16-8 24 20-16 20 16-8-24 20-16H40z"/></svg><svg id="twitter" data-name="Layer 1" width="53.78" height="44.06" viewBox="-1 -1 53.78 44.06" x="1442.55" y="828"><defs><style>.lcls-1{fill:#fff}</style></defs><title>twitter</title><path class="lcls-1" d="M51.78 5a22.23 22.23 0 0 1-5.32 5.52v1.38a30.15 30.15 0 0 1-1.25 8.53 30.81 30.81 0 0 1-3.76 8.13 32.1 32.1 0 0 1-6.06 6.92 27 27 0 0 1-8.48 4.8 31 31 0 0 1-10.62 1.8A29.47 29.47 0 0 1 0 37.29a22.71 22.71 0 0 0 2.56.13 20.78 20.78 0 0 0 13.17-4.53 10.63 10.63 0 0 1-9.92-7.36 13.45 13.45 0 0 0 2 .16 11 11 0 0 0 2.79-.36 10.44 10.44 0 0 1-6.09-3.67 10.25 10.25 0 0 1-2.41-6.75v-.13a10.52 10.52 0 0 0 4.8 1.34 10.6 10.6 0 0 1-3.45-3.78 10.34 10.34 0 0 1-1.28-5.07 10.4 10.4 0 0 1 1.45-5.33 30.08 30.08 0 0 0 9.71 7.83A29.57 29.57 0 0 0 25.53 13a11.79 11.79 0 0 1-.26-2.43 10.23 10.23 0 0 1 3-7.48 10.64 10.64 0 0 1 15 0l.21.22A20.81 20.81 0 0 0 50.33.8a10.3 10.3 0 0 1-4.67 5.85A21.14 21.14 0 0 0 51.78 5z"/></svg><svg id="wifi" data-name="Layer 1" width="62" height="66" viewBox="-1 -1 62 66" x="1442.55" y="762"><defs><style>.mcls-1{fill:#d4953e}</style></defs><title>wifi</title><path class="mcls-1" d="M29.88 0A55.39 55.39 0 0 0 0 8.72l4.22 6.48a47.32 47.32 0 0 1 25.66-7.28 47.31 47.31 0 0 1 25.9 7.28L60 8.72A55.53 55.53 0 0 0 29.88 0zm0 24a31.08 31.08 0 0 0-17 5l4.22 6.72A23.09 23.09 0 0 1 29.8 32a24.17 24.17 0 0 1 13 3.76L47 29a32.37 32.37 0 0 0-17.2-5h.07zm0 24a8 8 0 1 0 8 8 8 8 0 0 0-8-8z"/></svg><svg width="514" height="514" viewBox="-1 -1 514 514" id="wifi-2" x="514" y="1002"><path d="M-612 320v96h96v-96h-96zm83 83h-70v-70h70v70z"/><path fill="#020202" d="M233.503 70.369c93.726-6.75 189.622 28.317 256.515 94.363 8.765 9.023 7.622 24.807-1.625 33.076-8.493 10.012-25.501 10.189-34.266.436-57.224-55.091-138.018-84.881-217.35-78.956-65.905 4.24-129.749 32.628-177.572 78.096-4.253 4.347-9.684 7.916-15.938 8.222-15.666 1.837-30.154-14.536-26.773-29.86.954-5.501 4.487-10.083 8.527-13.747 55.988-53.607 131.151-86.53 208.482-91.63z"/><path fill="#020202" d="M231.183 162.282c71.806-7.81 146.369 18.658 197.183 69.968 7.939 9.07 6.95 23.901-1.872 32.052-8.046 9.847-24.265 10.953-33.383 2.024-32.534-32.074-76.518-52.44-122.126-55.774-55.387-4.594-111.974 16.42-151.411 55.445-9.094 9.612-26.033 8.518-34.218-1.708-8.823-8.327-9.553-23.559-1.084-32.381 39.084-39.106 91.937-63.984 146.911-69.626z"/><path fill="#020202" d="M241.796 252.97c45.314-4.499 92.161 12.852 123.693 45.669 8.634 8.987 7.634 24.454-1.461 32.77-8.257 9.966-24.807 10.638-33.782 1.296-17.774-18.245-42.394-29.778-67.884-31.168-28.929-2.062-58.201 9.365-78.744 29.695-5.053 5.679-12.557 9.165-20.237 8.259-17.833-1.25-30.213-25.056-17.928-39.344 24.807-26.904 60.039-43.572 96.343-47.177z"/><path fill="#020202" d="M248.781 337.651c29.201-4.9 58.837 19.213 59.78 48.824 2.709 29.036-22.923 56.589-52.063 55.951-26.197.908-50.475-20.825-52.772-46.88-3.735-27.352 17.656-54.738 45.055-57.895z"/></svg><svg id="youtube" data-name="Layer 1" width="36.75" height="44" viewBox="-1 -1 36.75 44" x="1465.78" y="872.06"><defs><style>.ocls-1{fill:#fff}</style></defs><title>youtube</title><path class="ocls-1" d="M22.13 29.15v5q0 1.57-.91 1.57a1.5 1.5 0 0 1-1.06-.52v-7.11a1.5 1.5 0 0 1 1.06-.54q.91 0 .91 1.6zm7.92 0v1.08h-2.1v-1.06q0-1.59 1.06-1.59t1 1.59zM7.42 24h2.5v-2.14h-7.3v2.2h2.46V37.4h2.34V24zm6.75 13.4h2.09V25.82h-2.09v8.86a1.86 1.86 0 0 1-1.31 1 .48.48 0 0 1-.49-.47 6.52 6.52 0 0 1 0-.82v-8.57h-2.14V35a5.79 5.79 0 0 0 .19 1.71 1.26 1.26 0 0 0 1.36.87 3.43 3.43 0 0 0 2.39-1.43v1.25zm10.05-3.47v-4.6A8.33 8.33 0 0 0 24 27a1.63 1.63 0 0 0-1.67-1.31A2.82 2.82 0 0 0 20.16 27v-5.1h-2.08v15.5h2.09v-1.13a2.91 2.91 0 0 0 2.18 1.31A1.62 1.62 0 0 0 24 36.27a8.61 8.61 0 0 0 .22-2.35zm7.92-.24v-.3H30a11.6 11.6 0 0 1 0 1.43.9.9 0 0 1-.94.85q-1.08 0-1.08-1.61V32h4.19v-2.41a4.65 4.65 0 0 0-.66-2.72 3.2 3.2 0 0 0-5 0 4.52 4.52 0 0 0-.66 2.72v4.05a4.4 4.4 0 0 0 .66 2.72 3 3 0 0 0 2.49 1.2 2.9 2.9 0 0 0 3-2.51 10.31 10.31 0 0 0 .09-1.36zM17.89 12.3V7.38q0-1.61-1-1.61t-1 1.61v4.92q0 1.64 1 1.64t1-1.64zm16.85 17.6a40.6 40.6 0 0 1-.61 8.2 4.45 4.45 0 0 1-1.36 2.32 4.1 4.1 0 0 1-2.39 1.08 125.31 125.31 0 0 1-13 .49 125.31 125.31 0 0 1-13-.49A4.15 4.15 0 0 1 2 40.42 4.28 4.28 0 0 1 .63 38.1 39.76 39.76 0 0 1 0 29.9a40.6 40.6 0 0 1 .61-8.2A4.45 4.45 0 0 1 2 19.37a4.25 4.25 0 0 1 2.41-1.1q4.29-.47 13-.47t13 .47a4.4 4.4 0 0 1 3.75 3.42 39.76 39.76 0 0 1 .58 8.21zM11.35 0h2.39l-2.83 9.35v6.35H8.57V9.35a39.68 39.68 0 0 0-1.43-5Q6.27 2 5.61 0H8.1l1.67 6.16zM20 7.8v4.1a4.59 4.59 0 0 1-.66 2.76 2.88 2.88 0 0 1-2.49 1.19 2.9 2.9 0 0 1-2.46-1.19 4.68 4.68 0 0 1-.66-2.76V7.8a4.59 4.59 0 0 1 .66-2.74 2.9 2.9 0 0 1 2.46-1.19 2.88 2.88 0 0 1 2.49 1.19A4.59 4.59 0 0 1 20 7.8zM27.87 4v11.7h-2.13v-1.27a3.37 3.37 0 0 1-2.41 1.45A1.31 1.31 0 0 1 22 15a6 6 0 0 1-.19-1.76V4h2.13v8.6a6.14 6.14 0 0 0 0 .82.49.49 0 0 0 .47.52 1.87 1.87 0 0 0 1.31-1V4h2.16z"/></svg></svg>
