<svg xmlns="http://www.w3.org/2000/svg">
  <defs>
       <pattern id="pattern-0" x="0" y="0" width="20" height="20" patternUnits="userSpaceOnUse" viewBox="0 0 100 100"> <path d="M 0 0 L 50 0 L 50 100 L 0 100 Z" style="fill: black;"/> </pattern>
  </defs>
    <symbol id="back-arrow" viewBox="0 0 240 240">
      <title>back-arrow icon</title>
      <g fill="#fff"><path d="M101.8 1.5C68 6.8 38.9 26 19.2 56c-37 56.1-17.9 133.4 41.3 167.7 45.9 26.6 102.2 19.8 141.1-17 55.3-52.3 49.9-138.1-11.5-183.6-24.8-18.3-57.5-26.3-88.3-21.6zm34.9 21c21.6 4.1 39.8 13.9 54.5 29.3 12.2 12.8 20.4 27.4 24.9 44.2 3.2 11.8 3.3 35.7.1 47.2-5.1 18.7-13.5 33.3-26.6 46.4-18.8 18.7-40.1 28.1-66.1 29.2-55.8 2.3-102.6-43-102.5-99.2.1-44.9 31-84.5 74.5-95.5 4.4-1.1 9.4-2.2 11-2.4 7.4-1 23-.6 30.2.8z"/><path d="M78.1 94.6l-24.3 25.5 7.8 8.2c4.4 4.5 15.3 16 24.3 25.5l16.5 17.2h34.8l-18.1-18.8-18-18.7 39.9-.3 40-.2v-26h-80.5l13-13.3c7.2-7.2 15.5-15.8 18.5-19l5.4-5.7H120l-17.5.1-24.4 25.5z"/></g>
    </symbol>
    <symbol id="facebook" viewBox="0 0 21.23 42.01">
      <title>facebook</title><path class="cls-1" d="M21.23.31V7H17.4a3.55 3.55 0 0 0-2.85.91 4.26 4.26 0 0 0-.74 2.72v4.77H21l-1 7.47h-6.19V42H6.27V22.85H0v-7.47h6.27V9.85q0-4.69 2.55-7.28A9 9 0 0 1 15.63 0a39.57 39.57 0 0 1 5.6.31z"/>
    </symbol>
    <symbol id="github" viewBox="0 0 438.549 438.549">
      <title>github icon</title>
       <g> <path d="M409.132,114.573c-19.608-33.596-46.205-60.194-79.798-79.8C295.736,15.166,259.057,5.365,219.271,5.365
		c-39.781,0-76.472,9.804-110.063,29.408c-33.596,19.605-60.192,46.204-79.8,79.8C9.803,148.168,0,184.854,0,224.63
		c0,47.78,13.94,90.745,41.827,128.906c27.884,38.164,63.906,64.572,108.063,79.227c5.14,0.954,8.945,0.283,11.419-1.996
		c2.475-2.282,3.711-5.14,3.711-8.562c0-0.571-0.049-5.708-0.144-15.417c-0.098-9.709-0.144-18.179-0.144-25.406l-6.567,1.136
		c-4.187,0.767-9.469,1.092-15.846,1c-6.374-0.089-12.991-0.757-19.842-1.999c-6.854-1.231-13.229-4.086-19.13-8.559
		c-5.898-4.473-10.085-10.328-12.56-17.556l-2.855-6.57c-1.903-4.374-4.899-9.233-8.992-14.559
		c-4.093-5.331-8.232-8.945-12.419-10.848l-1.999-1.431c-1.332-0.951-2.568-2.098-3.711-3.429c-1.142-1.331-1.997-2.663-2.568-3.997
		c-0.572-1.335-0.098-2.43,1.427-3.289c1.525-0.859,4.281-1.276,8.28-1.276l5.708,0.853c3.807,0.763,8.516,3.042,14.133,6.851
		c5.614,3.806,10.229,8.754,13.846,14.842c4.38,7.806,9.657,13.754,15.846,17.847c6.184,4.093,12.419,6.136,18.699,6.136
		c6.28,0,11.704-0.476,16.274-1.423c4.565-0.952,8.848-2.383,12.847-4.285c1.713-12.758,6.377-22.559,13.988-29.41
		c-10.848-1.14-20.601-2.857-29.264-5.14c-8.658-2.286-17.605-5.996-26.835-11.14c-9.235-5.137-16.896-11.516-22.985-19.126
		c-6.09-7.614-11.088-17.61-14.987-29.979c-3.901-12.374-5.852-26.648-5.852-42.826c0-23.035,7.52-42.637,22.557-58.817
		c-7.044-17.318-6.379-36.732,1.997-58.24c5.52-1.715,13.706-0.428,24.554,3.853c10.85,4.283,18.794,7.952,23.84,10.994
		c5.046,3.041,9.089,5.618,12.135,7.708c17.705-4.947,35.976-7.421,54.818-7.421s37.117,2.474,54.823,7.421l10.849-6.849
		c7.419-4.57,16.18-8.758,26.262-12.565c10.088-3.805,17.802-4.853,23.134-3.138c8.562,21.509,9.325,40.922,2.279,58.24
		c15.036,16.18,22.559,35.787,22.559,58.817c0,16.178-1.958,30.497-5.853,42.966c-3.9,12.471-8.941,22.457-15.125,29.979
		c-6.191,7.521-13.901,13.85-23.131,18.986c-9.232,5.14-18.182,8.85-26.84,11.136c-8.662,2.286-18.415,4.004-29.263,5.146
		c9.894,8.562,14.842,22.077,14.842,40.539v60.237c0,3.422,1.19,6.279,3.572,8.562c2.379,2.279,6.136,2.95,11.276,1.995
		c44.163-14.653,80.185-41.062,108.068-79.226c27.88-38.161,41.825-81.126,41.825-128.906
		C438.536,184.851,428.728,148.168,409.132,114.573z"/> </g>
    </symbol>
    <symbol id="mail" viewBox="0 -0.075 48.083 36.156">
        <title>mail</title> <path class="cls-1" d="M 0 0 L 0 6 L 24 18 L 48 6 L 48 0 L 0 0 Z M 0 12 L 0 36 L 48 36 L 48 12 L 24 24 L 0 12 Z" style="fill-rule: evenodd; fill: rgb(255, 255, 255);"/>
    </symbol>
    <symbol id="phone" viewBox="0 0 103.5 103.5">
      <title>phone icon</title>
       <path d="M64.832,55.837c-3.581,3.583-3.581,7.166-7.163,7.166c-3.579,0-7.161-3.583-10.743-7.166
	c-3.578-3.58-7.16-7.161-7.16-10.743c0-3.579,3.582-3.579,7.16-7.161c3.582-3.582-7.16-14.317-10.74-14.317
	c-3.577,0-10.74,10.736-10.74,10.736c0,7.164,7.357,21.68,14.32,28.651c6.966,6.961,21.485,14.32,28.646,14.32
	c0,0,10.741-7.163,10.741-10.742C79.153,63.003,68.412,52.258,64.832,55.837z" style="fill: rgb(255, 255, 255);"/> <circle stroke-width="2.7778" stroke-miterlimit="10" cx="51.833" cy="51.859" r="50" style="fill: none;"/>
    </symbol>
    <symbol id="twitter" viewBox="0 0 51.78 42.06">
      <title>twitter</title><path class="cls-1" d="M51.78,5a22.23,22.23,0,0,1-5.32,5.52v1.38a30.15,30.15,0,0,1-1.25,8.53,30.81,30.81,0,0,1-3.76,8.13,32.1,32.1,0,0,1-6.06,6.92,27,27,0,0,1-8.48,4.8,31,31,0,0,1-10.62,1.8A29.47,29.47,0,0,1,0,37.29a22.71,22.71,0,0,0,2.56.13,20.78,20.78,0,0,0,13.17-4.53,10.63,10.63,0,0,1-9.92-7.36,13.45,13.45,0,0,0,2,.16,11,11,0,0,0,2.79-.36,10.44,10.44,0,0,1-6.09-3.67A10.25,10.25,0,0,1,2.1,14.91V14.78a10.52,10.52,0,0,0,4.8,1.34,10.6,10.6,0,0,1-3.45-3.78A10.34,10.34,0,0,1,2.17,7.27,10.4,10.4,0,0,1,3.62,1.94a30.08,30.08,0,0,0,9.71,7.83A29.57,29.57,0,0,0,25.53,13a11.79,11.79,0,0,1-.26-2.43,10.23,10.23,0,0,1,3-7.48,10.64,10.64,0,0,1,15,0l0.21,0.22A20.81,20.81,0,0,0,50.33.8a10.3,10.3,0,0,1-4.67,5.85A21.14,21.14,0,0,0,51.78,5Z"/>
    </symbol></svg>
