<?xml version="1.0" encoding="utf-8"?>
<!-- Svg Vector Icons : http://www.onlinewebfonts.com/icon -->
<!DOCTYPE svg PUBLIC "-//W3C//DTD SVG 1.1//EN" "http://www.w3.org/Graphics/SVG/1.1/DTD/svg11.dtd">
<svg version="1.1" xmlns="http://www.w3.org/2000/svg" xmlns:xlink="http://www.w3.org/1999/xlink" x="0px" y="0px" viewBox="0 0 1000 1000" enable-background="new 0 0 1000 1000" xml:space="preserve">
<metadata> Svg Vector Icons : http://www.onlinewebfonts.com/icon </metadata>
<g><g transform="translate(0.000000,511.000000) scale(0.100000,-0.100000)"><path d="M8159.3,4599.6c-371.5-80.4-687.4-285.3-901.8-589.7c-178.1-254.7-277.6-589.8-262.3-884.6l7.7-158.9l-2115.8-944c-1164.2-518.9-2136.8-951.6-2159.8-961.2c-36.4-17.2-59.4-3.8-162.8,91.9c-149.3,137.9-302.5,239.3-461.4,302.5C1251,1796.4,312.8,1292.8,129,392.9C-8.9-275.3,356.8-966.5,984.8-1228.9c549.5-225.9,1150.8-114.9,1579.6,296.8l128.3,122.6l2156-961.2l2156-961.2l-9.6-164.7c-21.1-379.1,132.1-783.1,404-1070.3c348.5-363.8,928.6-524.6,1420.7-394.4c394.4,105.3,746.7,396.3,928.6,765.9c95.7,197.2,132.1,338.9,147.4,564.8c36.4,603.1-323.6,1183.3-880.8,1415c-555.3,229.8-1158.4,113-1602.6-314l-105.3-99.6l-2152.1,959.3L3002.9-108.8v225.9l-1.9,226l2142.6,955.4C6323.1,1825.1,7291.9,2254,7297.7,2254c5.7,0,65.1-51.7,130.2-114.9c831-809.9,2209.6-384.9,2443.2,750.6c137.8,668.2-227.9,1359.4-855.9,1619.8C8743.3,4622.5,8427.3,4655.1,8159.3,4599.6z" fill='#FFFFFF'/></g></g>
</svg>
