<?xml-stylesheet type="text/css" href="styles.css" ?><svg width="320" height="320" viewBox="0 0 240.000000 240.000000" xmlns="http://www.w3.org/2000/svg"><g fill="#fff"><path d="M101.8 1.5C68 6.8 38.9 26 19.2 56c-37 56.1-17.9 133.4 41.3 167.7 45.9 26.6 102.2 19.8 141.1-17 55.3-52.3 49.9-138.1-11.5-183.6-24.8-18.3-57.5-26.3-88.3-21.6zm34.9 21c21.6 4.1 39.8 13.9 54.5 29.3 12.2 12.8 20.4 27.4 24.9 44.2 3.2 11.8 3.3 35.7.1 47.2-5.1 18.7-13.5 33.3-26.6 46.4-18.8 18.7-40.1 28.1-66.1 29.2-55.8 2.3-102.6-43-102.5-99.2.1-44.9 31-84.5 74.5-95.5 4.4-1.1 9.4-2.2 11-2.4 7.4-1 23-.6 30.2.8z"/><path d="M78.1 94.6l-24.3 25.5 7.8 8.2c4.4 4.5 15.3 16 24.3 25.5l16.5 17.2h34.8l-18.1-18.8-18-18.7 39.9-.3 40-.2v-26h-80.5l13-13.3c7.2-7.2 15.5-15.8 18.5-19l5.4-5.7H120l-17.5.1-24.4 25.5z"/></g></svg>