<?xml version="1.0" encoding="utf-8"?>
<svg viewBox="0 210 500 50" xmlns="http://www.w3.org/2000/svg" xmlns:bx="https://boxy-svg.com">
  <path d="M -18.743 169.456 Z" style="stroke: black; fill: none;"/>
  <path d="M 0 240 L 200 230 L 200 250 L 0 240 Z M 500 240 L 300 250 L 300 230 L 500 240 Z M 276.001 234.726 C 276.002 248.533 264.81 259.726 251.003 259.726 C 237.196 259.727 226.002 248.534 226.001 234.727 C 226 220.92 237.193 209.727 251 209.726 C 264.807 209.726 276 220.919 276.001 234.726 Z M 216.496 237.5 C 216.496 241.642 213.139 245 208.996 245 C 204.854 245 201.496 241.642 201.496 237.5 C 201.496 233.358 204.854 230 208.996 230 C 213.139 230 216.496 233.358 216.496 237.5 Z M 298.508 237.5 C 298.508 241.642 295.15 245 291.008 245 C 286.866 245 283.508 241.642 283.508 237.5 C 283.508 233.358 286.866 230 291.008 230 C 295.15 230 298.508 233.358 298.508 237.5 Z" style="fill: rgb(255, 255, 255);" bx:origin="0.5 0.5"/>
  <ellipse transform="matrix(NaN, NaN, NaN, NaN, NaN, NaN)" style="fill: rgb(216, 216, 216);"/>
</svg>
