<?xml version="1.0" encoding="utf-8"?>
<?xml-stylesheet type="text/css" href="styles.css" ?>
<svg id="Layer_1" x="0px" y="0px" width="103.5px" height="103.5px" viewBox="0 0 103.5 103.5" xmlns="http://www.w3.org/2000/svg">
  <path d="M64.832,55.837c-3.581,3.583-3.581,7.166-7.163,7.166c-3.579,0-7.161-3.583-10.743-7.166&#10;&#9;c-3.578-3.58-7.16-7.161-7.16-10.743c0-3.579,3.582-3.579,7.16-7.161c3.582-3.582-7.16-14.317-10.74-14.317&#10;&#9;c-3.577,0-10.74,10.736-10.74,10.736c0,7.164,7.357,21.68,14.32,28.651c6.966,6.961,21.485,14.32,28.646,14.32&#10;&#9;c0,0,10.741-7.163,10.741-10.742C79.153,63.003,68.412,52.258,64.832,55.837z" style="fill: rgb(255, 255, 255);"/>
  <circle stroke-width="2.7778" stroke-miterlimit="10" cx="51.833" cy="51.859" r="50" style="fill: none;"/>
</svg>
