<svg xmlns="http://www.w3.org/2000/svg">
  <defs>
       <pattern id="pattern-0" x="0" y="0" width="20" height="20" patternUnits="userSpaceOnUse" viewBox="0 0 100 100"> <path d="M 0 0 L 50 0 L 50 100 L 0 100 Z" style="fill: black;"/> </pattern> 
  </defs>
    <symbol id="back-arrow" viewBox="0 0 240 240">
      <title>back-arrow icon</title>
      <g fill="#fff"><path d="M101.8 1.5C68 6.8 38.9 26 19.2 56c-37 56.1-17.9 133.4 41.3 167.7 45.9 26.6 102.2 19.8 141.1-17 55.3-52.3 49.9-138.1-11.5-183.6-24.8-18.3-57.5-26.3-88.3-21.6zm34.9 21c21.6 4.1 39.8 13.9 54.5 29.3 12.2 12.8 20.4 27.4 24.9 44.2 3.2 11.8 3.3 35.7.1 47.2-5.1 18.7-13.5 33.3-26.6 46.4-18.8 18.7-40.1 28.1-66.1 29.2-55.8 2.3-102.6-43-102.5-99.2.1-44.9 31-84.5 74.5-95.5 4.4-1.1 9.4-2.2 11-2.4 7.4-1 23-.6 30.2.8z"/><path d="M78.1 94.6l-24.3 25.5 7.8 8.2c4.4 4.5 15.3 16 24.3 25.5l16.5 17.2h34.8l-18.1-18.8-18-18.7 39.9-.3 40-.2v-26h-80.5l13-13.3c7.2-7.2 15.5-15.8 18.5-19l5.4-5.7H120l-17.5.1-24.4 25.5z"/></g>
    </symbol>
    <symbol id="facebook" viewBox="0 0 21.23 42.01">
      <title>facebook</title><path class="cls-1" d="M21.23.31V7H17.4a3.55 3.55 0 0 0-2.85.91 4.26 4.26 0 0 0-.74 2.72v4.77H21l-1 7.47h-6.19V42H6.27V22.85H0v-7.47h6.27V9.85q0-4.69 2.55-7.28A9 9 0 0 1 15.63 0a39.57 39.57 0 0 1 5.6.31z"/>
    </symbol>
    <symbol id="hr" viewBox="0 210 500 50">
      <title>hr icon</title>
       <path d="M -18.743 169.456 Z" style="stroke: black; fill: none;"/> <path d="M 0 240 L 200 230 L 200 250 L 0 240 Z M 500 240 L 300 250 L 300 230 L 500 240 Z M 276.001 234.726 C 276.002 248.533 264.81 259.726 251.003 259.726 C 237.196 259.727 226.002 248.534 226.001 234.727 C 226 220.92 237.193 209.727 251 209.726 C 264.807 209.726 276 220.919 276.001 234.726 Z M 216.496 237.5 C 216.496 241.642 213.139 245 208.996 245 C 204.854 245 201.496 241.642 201.496 237.5 C 201.496 233.358 204.854 230 208.996 230 C 213.139 230 216.496 233.358 216.496 237.5 Z M 298.508 237.5 C 298.508 241.642 295.15 245 291.008 245 C 286.866 245 283.508 241.642 283.508 237.5 C 283.508 233.358 286.866 230 291.008 230 C 295.15 230 298.508 233.358 298.508 237.5 Z" style="fill: rgb(255, 255, 255);"/> <ellipse transform="matrix(NaN, NaN, NaN, NaN, NaN, NaN)" style="fill: rgb(216, 216, 216);"/> 
    </symbol>
    <symbol id="mail" viewBox="0 -0.075 48.083 36.156">
        <title>mail</title> <path class="cls-1" d="M 0 0 L 0 6 L 24 18 L 48 6 L 48 0 L 0 0 Z M 0 12 L 0 36 L 48 36 L 48 12 L 24 24 L 0 12 Z" style="fill-rule: evenodd; fill: rgb(255, 255, 255);"/> 
    </symbol>
    <symbol id="phone" viewBox="0 0 103.5 103.5">
      <title>phone icon</title>
       <path d="M64.832,55.837c-3.581,3.583-3.581,7.166-7.163,7.166c-3.579,0-7.161-3.583-10.743-7.166
	c-3.578-3.58-7.16-7.161-7.16-10.743c0-3.579,3.582-3.579,7.16-7.161c3.582-3.582-7.16-14.317-10.74-14.317
	c-3.577,0-10.74,10.736-10.74,10.736c0,7.164,7.357,21.68,14.32,28.651c6.966,6.961,21.485,14.32,28.646,14.32
	c0,0,10.741-7.163,10.741-10.742C79.153,63.003,68.412,52.258,64.832,55.837z" style="fill: rgb(255, 255, 255);"/> <circle stroke-width="2.7778" stroke-miterlimit="10" cx="51.833" cy="51.859" r="50" style="fill: none;"/> 
    </symbol>
    <symbol id="twitter" viewBox="0 0 51.78 42.06">
      <title>twitter</title><path class="cls-1" d="M51.78,5a22.23,22.23,0,0,1-5.32,5.52v1.38a30.15,30.15,0,0,1-1.25,8.53,30.81,30.81,0,0,1-3.76,8.13,32.1,32.1,0,0,1-6.06,6.92,27,27,0,0,1-8.48,4.8,31,31,0,0,1-10.62,1.8A29.47,29.47,0,0,1,0,37.29a22.71,22.71,0,0,0,2.56.13,20.78,20.78,0,0,0,13.17-4.53,10.63,10.63,0,0,1-9.92-7.36,13.45,13.45,0,0,0,2,.16,11,11,0,0,0,2.79-.36,10.44,10.44,0,0,1-6.09-3.67A10.25,10.25,0,0,1,2.1,14.91V14.78a10.52,10.52,0,0,0,4.8,1.34,10.6,10.6,0,0,1-3.45-3.78A10.34,10.34,0,0,1,2.17,7.27,10.4,10.4,0,0,1,3.62,1.94a30.08,30.08,0,0,0,9.71,7.83A29.57,29.57,0,0,0,25.53,13a11.79,11.79,0,0,1-.26-2.43,10.23,10.23,0,0,1,3-7.48,10.64,10.64,0,0,1,15,0l0.21,0.22A20.81,20.81,0,0,0,50.33.8a10.3,10.3,0,0,1-4.67,5.85A21.14,21.14,0,0,0,51.78,5Z"/>
    </symbol></svg>